<svg width="140" height="28" viewBox="0 0 140 28" fill="none" xmlns="http://www.w3.org/2000/svg">
  <path d="M29.0709 16.0543C28.5224 15.4353 27.8476 15.0164 27.1208 14.8446C26.2228 14.6204 25.3226 15.0054 24.9305 15.7803C24.8737 15.8875 24.8988 16.0171 24.9929 16.097C25.0875 16.1779 25.222 16.1812 25.3155 16.1079C25.3407 16.0888 25.3648 16.0696 25.3894 16.0505L25.4282 16.0193C25.5819 15.8935 25.7443 15.794 25.8985 15.7322C26.814 15.368 27.823 16.0051 28.6356 16.5225L28.6378 16.5241C28.6958 16.5668 28.7619 16.5875 28.8281 16.5875C28.9134 16.5875 28.9976 16.5525 29.0616 16.4847C29.1748 16.3644 29.1803 16.1856 29.0748 16.0587L29.0709 16.0543Z" fill="#ECEEF5"/>
  <path d="M25.5938 12.3979C25.6573 11.5289 25.6119 10.3871 25.0328 9.88066C24.7024 9.59191 24.2535 9.45082 23.8307 9.50277C23.4096 9.55418 23.0104 9.79808 22.7632 10.1552C22.5685 10.4368 22.4619 10.7863 22.4466 11.1937C22.4389 11.3786 22.5838 11.535 22.7692 11.5426C22.8573 11.5459 22.9431 11.5142 23.0093 11.4535C23.0755 11.3922 23.1143 11.3091 23.1176 11.22C23.1285 10.9378 23.1936 10.7146 23.3156 10.5375C23.455 10.3357 23.6781 10.1984 23.9128 10.1694L23.9488 10.165C24.0528 10.1574 24.1605 10.1711 24.2655 10.2044C23.9117 10.4532 23.6169 11.0471 23.4906 11.7898L23.4807 11.8483L24.1692 12.2142L23.4244 12.48V12.5374C23.4107 13.6683 23.8006 14.5187 24.3508 14.5597C24.3645 14.5608 24.3776 14.5608 24.3907 14.5608C24.9797 14.5608 25.5036 13.6257 25.5938 12.3979Z" fill="#ECEEF5"/>
  <path d="M32.7931 9.4973L32.8369 9.49183C32.9714 9.48254 33.112 9.50222 33.2476 9.54871C32.8199 9.8298 32.4617 10.5413 32.3097 11.436L32.2998 11.4945L33.1371 11.9391L32.2309 12.2623V12.3197C32.2156 13.6525 32.6717 14.6543 33.3159 14.7019C33.3313 14.703 33.3466 14.7036 33.3624 14.7036C34.052 14.7036 34.6667 13.6005 34.7728 12.1529C34.8483 11.1264 34.7947 9.77785 34.1127 9.18121C33.7245 8.84215 33.1962 8.6759 32.6996 8.7366C32.2047 8.79785 31.7355 9.08441 31.4451 9.50386C31.2154 9.83527 31.0896 10.2471 31.0716 10.7272C31.0677 10.8295 31.1038 10.9274 31.1733 11.0023C31.2427 11.0772 31.3373 11.121 31.4396 11.1248C31.5419 11.1286 31.6381 11.0931 31.7136 11.0231C31.7891 10.9536 31.8334 10.859 31.8372 10.7568C31.8503 10.4193 31.928 10.1525 32.0751 9.93972C32.2424 9.69746 32.5109 9.53175 32.7931 9.4973Z" fill="#ECEEF5"/>
  <path d="M36.4067 16.6367L36.4259 16.6182L36.2914 16.5799C36.1967 16.5531 36.0972 16.5657 36.0114 16.616C35.9271 16.6652 35.8653 16.7467 35.8429 16.8375C35.745 17.1853 35.5706 17.509 35.325 17.7989C34.6513 18.5929 33.5444 19.0944 32.2095 19.212C32.0405 19.2235 31.9136 19.3503 31.9005 19.5204C31.8874 19.691 31.9946 19.836 32.1624 19.8737C32.4113 19.9251 32.6699 19.9514 32.9314 19.9514C33.6461 19.9514 34.3576 19.7627 34.9887 19.405C35.6985 18.9992 36.2317 18.3742 36.4505 17.6889C36.5364 17.4144 36.5708 17.1492 36.5539 16.9014C36.5457 16.7942 36.4904 16.6985 36.4067 16.6367Z" fill="#ECEEF5"/>
  <path d="M22.0863 27.9189C21.5717 27.9189 21.0513 27.8916 20.5393 27.8379L20.4956 27.8332L20.4872 27.8321C17.9521 27.4806 15.7468 26.323 14.1098 24.4845C13.0175 23.2732 12.2619 21.8431 11.9277 20.3508L11.9251 20.3392C11.6552 18.9932 11.3074 17.994 10.8301 17.1942C10.5381 16.7017 10.1898 16.2639 9.79301 15.8924C9.77617 15.8766 9.75933 15.8614 9.74197 15.8461C9.612 15.8661 9.48571 15.8761 9.36364 15.8761C9.02635 15.8761 8.71117 15.843 8.40072 15.7746C7.63406 15.6062 6.95107 15.2331 6.37121 14.6654C6.16811 14.4665 5.97657 14.2418 5.80135 13.9966C5.59877 13.714 5.42408 13.4399 5.28253 13.182C5.05417 12.7663 4.89736 12.377 4.8037 11.9902C4.6569 11.3851 4.68794 10.89 4.74319 10.4453C4.81633 9.85969 5.06364 9.243 5.42092 8.7347C5.41408 8.72102 5.40671 8.70787 5.39987 8.69471C5.21308 8.33112 5.10837 8.02172 5.07995 7.7481C5.02049 7.1714 5.15414 6.5605 5.44618 6.07167C5.85187 5.39447 6.54222 4.96773 7.38991 4.86933C7.46253 4.86091 7.53777 4.85618 7.61301 4.85618C7.97924 4.85618 8.36388 4.95878 8.75537 5.16137L8.76642 5.16715C9.10581 5.34501 9.44993 5.59652 9.78932 5.91539C10.3166 6.41106 10.7691 7.01197 11.0206 7.53921C11.6547 6.31372 12.4881 5.2645 13.4695 4.46575C13.7673 4.22318 14.0814 4.00218 14.4019 3.80907C15.5248 3.13292 16.7792 2.77564 18.0305 2.77564C20.0284 2.77564 21.9953 3.69909 23.5033 5.32764C23.9937 4.87565 24.5294 4.4668 25.1019 4.10741C26.9067 2.97506 28.9972 2.37626 31.1478 2.37626C33.1757 2.37626 35.1368 2.90034 36.8506 3.89641C37.5962 2.89613 38.5307 2.03476 39.5757 1.38598C39.8341 1.22549 40.0977 1.07816 40.3587 0.948189C41.621 0.318869 42.9391 0 44.2767 0C44.6455 0 45.016 0.025257 45.3785 0.0752447C47.8416 0.415161 49.9916 1.8969 51.4333 4.24633L51.4496 4.27211L52.0111 5.19399H51.95C52.5025 6.33687 52.8693 7.5934 52.9993 8.811L53.0024 8.83889V10.709L52.9987 10.74C52.9409 11.2283 52.8367 11.6882 52.6899 12.106C52.2552 13.3378 51.5928 13.8129 50.6756 14.4701L50.6625 14.4796C50.1484 14.849 49.5033 15.3115 48.6556 16.0776C48.613 16.1155 48.5709 16.1539 48.5288 16.1929C48.5109 16.2113 48.4919 16.2287 48.4714 16.246C48.0221 16.6607 47.5543 17.1263 47.0802 17.6304C46.3277 18.4286 45.7458 19.1206 45.2322 19.7315L45.2127 19.7541C43.8526 21.3742 42.9538 22.444 41.2585 22.5945C41.1406 22.605 41.0201 22.6097 40.8991 22.6097C39.823 22.6097 38.7312 22.1867 37.6493 21.3511C35.8172 22.635 33.5977 23.3574 31.333 23.4048C30.8705 24.011 30.3495 24.5682 29.7807 25.0633C28.1296 26.5345 25.9643 27.518 23.6843 27.8327L23.6686 27.8348C23.145 27.8911 22.6125 27.92 22.0858 27.92L22.0863 27.9189Z" fill="#ECEEF5"/>
  <path d="M29.461 15.9355C28.9332 15.3399 28.2839 14.9368 27.5846 14.7716C26.7206 14.5559 25.8545 14.9263 25.4772 15.6719C25.4225 15.7751 25.4467 15.8998 25.5372 15.9766C25.6283 16.0545 25.7577 16.0576 25.8477 15.9871C25.8719 15.9687 25.895 15.9503 25.9187 15.9319L25.9561 15.9019C26.1039 15.7808 26.2602 15.6851 26.4086 15.6256C27.2894 15.2752 28.2603 15.8882 29.0422 16.386L29.0443 16.3875C29.1 16.4286 29.1637 16.4486 29.2274 16.4486C29.3095 16.4486 29.3905 16.4149 29.4521 16.3496C29.561 16.2339 29.5662 16.0618 29.4647 15.9397L29.461 15.9355Z" fill="#290053"/>
  <path d="M26.1154 12.4174C26.1764 11.5813 26.1327 10.4827 25.5755 9.99541C25.2577 9.71759 24.8257 9.58183 24.4189 9.63182C24.0138 9.68128 23.6297 9.91596 23.3918 10.2596C23.2045 10.5305 23.1019 10.8668 23.0872 11.2588C23.0798 11.4366 23.2192 11.5871 23.3976 11.5945C23.4823 11.5977 23.5649 11.5671 23.6286 11.5087C23.6923 11.4498 23.7296 11.3698 23.7328 11.284C23.7433 11.0125 23.8059 10.7978 23.9233 10.6274C24.0575 10.4332 24.2721 10.3011 24.4979 10.2732L24.5326 10.269C24.6326 10.2617 24.7362 10.2748 24.8373 10.3069C24.4968 10.5463 24.2132 11.1178 24.0917 11.8323L24.0822 11.8886L24.7447 12.2407L24.028 12.4964V12.5516C24.0148 13.6398 24.39 14.458 24.9193 14.4975C24.9325 14.4985 24.9451 14.4985 24.9578 14.4985C25.5245 14.4985 26.0285 13.5987 26.1154 12.4174Z" fill="#290053"/>
  <path d="M33.0416 9.62666L33.0837 9.62139C33.2131 9.61245 33.3484 9.63139 33.4789 9.67612C33.0674 9.94658 32.7227 10.6311 32.5765 11.492L32.567 11.5483L33.3726 11.9761L32.5007 12.2871V12.3423C32.486 13.6246 32.9248 14.5886 33.5446 14.6344C33.5594 14.6354 33.5741 14.636 33.5894 14.636C34.2529 14.636 34.8443 13.5746 34.9464 12.1818C35.019 11.1942 34.9674 9.89659 34.3113 9.32252C33.9377 8.99628 33.4294 8.83632 32.9516 8.89473C32.4754 8.95366 32.024 9.22938 31.7446 9.63297C31.5236 9.95184 31.4025 10.3481 31.3852 10.81C31.3815 10.9084 31.4162 11.0026 31.483 11.0747C31.5499 11.1468 31.6409 11.1889 31.7393 11.1926C31.8377 11.1963 31.9303 11.1621 32.0029 11.0947C32.0755 11.0279 32.1181 10.9369 32.1218 10.8385C32.1345 10.5138 32.2092 10.257 32.3507 10.0523C32.5117 9.81924 32.7701 9.6598 33.0416 9.62666Z" fill="#290053"/>
  <path d="M36.5194 16.4959L36.5379 16.478L36.4084 16.4412C36.3174 16.4154 36.2216 16.4275 36.139 16.4759C36.058 16.5233 35.9985 16.6017 35.9769 16.689C35.8828 17.0237 35.7149 17.3352 35.4786 17.6141C34.8304 18.3781 33.7654 18.8606 32.481 18.9737C32.3184 18.9848 32.1963 19.1069 32.1837 19.2705C32.171 19.4347 32.2742 19.5741 32.4357 19.6104C32.6751 19.6599 32.924 19.6851 33.1755 19.6851C33.8632 19.6851 34.5478 19.5036 35.155 19.1595C35.838 18.7691 36.3511 18.1676 36.5615 17.5083C36.6441 17.2442 36.6773 16.989 36.661 16.7506C36.6531 16.6475 36.5999 16.5554 36.5194 16.4959Z" fill="#290053"/>
  <path d="M23.6124 27.3107C25.7808 27.0113 27.8435 26.0847 29.4331 24.6677C30.0392 24.1399 30.5891 23.5385 31.0674 22.8797C31.0764 22.8797 31.0858 22.8802 31.0953 22.8802C33.4705 22.8802 35.8015 22.1014 37.6669 20.6865C38.7566 21.6131 39.8442 22.0825 40.8992 22.0825C41.0045 22.0825 41.1097 22.0778 41.2118 22.0688C42.6914 21.9373 43.4896 20.9865 44.8114 19.4121L44.8288 19.3921C45.3476 18.7749 45.9353 18.0756 46.6962 17.2689C47.1819 16.7522 47.6628 16.2739 48.1222 15.8503C48.1322 15.8419 48.1464 15.8293 48.1616 15.8135C48.209 15.7704 48.2558 15.7272 48.3021 15.6862C49.1719 14.9001 49.8302 14.4275 50.359 14.0482L50.3685 14.0418C51.2698 13.3962 51.8134 13.0063 52.1928 11.9308C52.3296 11.5425 52.4232 11.121 52.4753 10.6774V8.86627C52.3248 7.45925 51.8439 5.9754 51.0715 4.6673H51.0736L51.0004 4.54733C50.9952 4.53838 50.9894 4.52997 50.9841 4.52102C49.6265 2.30788 47.6113 0.914536 45.306 0.596193C43.7354 0.379931 42.1058 0.664598 40.593 1.41862C40.3399 1.54491 40.0931 1.68382 39.8526 1.83273C38.725 2.53256 37.7484 3.47707 36.9954 4.60153H36.9949C35.2674 3.48969 33.2474 2.90247 31.1474 2.90247C29.0474 2.90247 27.0784 3.48812 25.3814 4.55312C24.6874 4.98827 24.0449 5.50341 23.4714 6.09221C22.0223 4.31791 20.0443 3.30185 18.0306 3.30185C16.8625 3.30185 15.7185 3.63071 14.6735 4.26003C14.3741 4.44051 14.0832 4.6452 13.8016 4.87409C12.6067 5.84701 11.6453 7.21299 11.0155 8.82786C11.005 8.8547 10.9939 8.88153 10.9834 8.90837C10.9823 8.90942 10.9808 8.911 10.9797 8.91258C10.9702 8.89258 10.9571 8.86364 10.9397 8.82102C10.9366 8.8126 10.9329 8.80418 10.9292 8.79524C10.8629 8.62475 10.7855 8.38902 10.6335 7.97228C10.4467 7.4603 9.96785 6.8052 9.42956 6.29901C9.15489 6.04117 8.84497 5.80229 8.52241 5.63338C8.51978 5.6318 8.51663 5.63075 8.514 5.62917C8.19881 5.46605 7.82943 5.34766 7.4511 5.39186C6.69023 5.48026 6.18614 5.86122 5.89832 6.34163C5.6247 6.79941 5.56472 7.3156 5.60366 7.69393C5.62891 7.93703 5.74257 8.21012 5.8678 8.45374C5.92253 8.56003 5.98409 8.67 6.05144 8.78208C5.72415 9.1562 5.35582 9.78657 5.26532 10.5101C5.21743 10.8958 5.18586 11.3336 5.31531 11.8666C5.39423 12.1928 5.53052 12.5412 5.74362 12.9284C5.87464 13.1668 6.03513 13.4194 6.22929 13.6904C6.39399 13.9203 6.565 14.1181 6.73969 14.2892C7.34323 14.8801 7.98413 15.1442 8.514 15.2605C8.8576 15.3363 9.15489 15.3494 9.36379 15.3494C9.52585 15.3494 9.69949 15.3263 9.87629 15.2826C9.96838 15.3478 10.0615 15.422 10.1531 15.5078C10.5861 15.9135 10.966 16.3897 11.2828 16.9238C11.7916 17.7767 12.1599 18.828 12.4415 20.2351C12.7561 21.6389 13.4691 22.9875 14.5031 24.1341C16.0548 25.8768 18.1727 26.9792 20.5595 27.3102L20.5942 27.3139C21.5976 27.4196 22.6095 27.418 23.6124 27.3102V27.3107ZM18.0301 4.3216C19.7897 4.3216 21.5203 5.24926 22.7873 6.86992C22.4048 7.35243 22.068 7.86809 21.785 8.40586C20.7573 7.36664 19.556 6.81783 18.3053 6.81783C16.491 6.81783 14.7667 8.00596 13.5633 10.0812C13.0676 9.74869 12.5277 9.45823 11.9563 9.21671C13.1113 6.24007 15.4886 4.3216 18.0301 4.3216ZM20.6979 13.5841C20.8341 15.6962 21.5629 17.5468 22.8642 19.0853C21.8891 19.9051 20.7757 20.1093 19.7234 19.661C18.2579 18.9701 17.6733 17.1363 17.1072 15.3605C16.843 14.5317 16.5931 13.7488 16.2595 13.0947C16.251 13.0779 16.2421 13.0616 16.2337 13.0447C16.4531 12.7711 16.8546 12.327 17.4118 11.9392C18.4747 11.1999 19.6171 10.9726 20.8126 11.2609C20.7726 11.494 20.741 11.7287 20.7184 11.9629C20.7126 12.0255 20.7078 12.0886 20.7031 12.1523L20.6921 12.3096C20.681 12.5149 20.6752 12.7059 20.6752 12.8774C20.6752 13.1037 20.6826 13.341 20.6973 13.5835L20.6979 13.5841ZM48.0764 14.0629C47.8501 14.5038 47.6107 14.859 47.4202 15.1111C46.9362 15.5594 46.4431 16.0503 45.9543 16.5696C45.1619 17.411 44.5352 18.1577 44.0311 18.7581C42.8382 20.1777 42.181 20.9601 41.1223 21.0533C40.2899 21.1269 39.3948 20.7791 38.4603 20.0193C40.4693 18.1503 41.6196 15.5531 41.6196 12.8779C41.6196 12.5517 41.6033 12.2297 41.5717 11.9213C41.5606 11.8077 41.5464 11.6935 41.5312 11.5793L41.5501 11.6209C41.5501 11.6209 42.2941 7.27456 45.2934 9.03307C48.2869 10.7879 48.0769 14.0482 48.0759 14.0613L48.0764 14.0629ZM51.2309 11.5914C50.9583 12.3654 50.6116 12.6138 49.7728 13.2142L49.7502 13.2305C49.656 13.2983 49.5513 13.3736 49.4387 13.4557C49.7228 12.618 49.8491 11.7592 49.8144 10.9C49.7381 9.03413 48.7636 5.34292 45.6207 4.72781C43.287 4.27108 40.8719 6.04065 39.7153 7.94439C39.7032 7.96386 39.6916 7.98386 39.6795 8.00385C39.5737 8.1817 39.4459 8.38955 39.4748 8.59897C39.5053 8.82049 39.68 9.01729 39.7732 9.21461C39.9026 9.48875 40.0173 9.77026 40.1168 10.057C40.3109 10.619 40.4467 11.201 40.5219 11.7908C40.8482 14.3418 39.9915 16.9122 38.2467 18.7923C37.9705 19.0896 37.6747 19.369 37.3617 19.6278L37.3527 19.6347C36.6208 20.2188 35.8331 20.7097 34.9691 21.0749C34.0998 21.4427 33.1779 21.6852 32.2403 21.7942C32.073 21.8136 31.9051 21.8273 31.7367 21.8378C31.783 21.7542 31.8293 21.6705 31.8762 21.5868C32.004 21.3564 32.0414 21.0391 31.7436 20.9165C31.5657 20.8428 31.3442 20.9223 31.2521 21.0912C30.0608 23.2896 28.0008 25.0281 25.5993 25.8621C23.1867 26.7093 20.5132 26.6224 18.2648 25.6243C16.8162 24.976 15.5412 23.9247 14.6425 22.6155C13.7469 21.3116 13.5354 19.7304 13.0381 18.2629C12.6093 16.9969 11.8405 15.7351 10.8219 14.8553C10.9066 14.9285 11.5732 14.115 11.6106 14.0108C11.7143 13.7182 11.5711 13.3183 11.2638 13.2747C10.926 13.2268 10.6987 13.5893 10.4646 13.8377C9.97101 14.3602 9.13911 14.4602 8.46296 14.2155C7.53529 13.8798 6.81967 13.0131 6.4645 12.1155C6.36873 11.874 6.29612 11.624 6.24823 11.3688C6.20035 11.1136 6.22403 10.8963 6.25665 10.6343C6.30454 10.2475 6.4787 9.89023 6.65129 9.63766C6.7881 9.80815 7.00226 9.96337 7.03752 10.1891C7.05698 10.3149 7.03962 10.4427 7.02804 10.5695C6.98805 10.9989 7.01594 11.4377 7.14749 11.8482C7.38112 12.5775 7.96255 13.1621 8.73236 13.2973C9.03966 13.351 9.37536 13.3026 9.62162 13.1115C9.92575 12.8753 10.0457 12.458 10.0105 12.0744C9.95785 11.5056 9.61162 11.0026 9.20277 10.6037C8.79393 10.2049 8.3151 9.88392 7.8952 9.49664C7.46478 9.09937 7.09803 8.63212 6.81862 8.11751C6.6634 7.83179 6.53238 7.50871 6.59341 7.18931C6.67655 6.75468 7.12013 6.44897 7.56265 6.43266C8.00517 6.41635 8.42823 6.64208 8.74604 6.95043C9.34327 7.53081 9.68003 8.28957 9.95575 9.0557C10.0273 9.25407 10.1089 9.45507 10.253 9.60925C10.4672 9.83761 10.7855 9.92864 11.0818 10.0297C12.0084 10.3438 12.8692 10.8437 13.6112 11.4809L13.648 11.5114C13.7085 11.5635 13.7674 11.6172 13.8259 11.6708C14.3352 12.3244 14.9135 13.171 15.2923 14.0508C15.5033 14.5396 15.6401 15.3873 15.7848 16.2845C15.9995 17.6147 16.2432 19.1227 16.8004 19.9115C17.7912 21.3143 18.9451 22.1462 20.2011 22.3824C20.6773 23.0102 21.0709 23.6721 21.0709 24.2236C21.0709 24.4703 21.2709 24.6708 21.5182 24.6708C21.765 24.6708 21.9654 24.4709 21.9654 24.2236C21.9654 23.6263 21.7029 23.0191 21.3319 22.4356C21.5382 22.4172 21.746 22.3845 21.9565 22.3361C22.459 22.5887 22.952 22.8744 23.2825 23.3427C23.3519 23.4411 23.4156 23.5469 23.513 23.6179C23.6392 23.7105 23.816 23.73 23.9581 23.6642C24.1002 23.5984 24.2007 23.4495 24.2054 23.2933C24.2086 23.1901 24.1728 23.0891 24.1275 22.9965C23.987 22.7108 23.7534 22.4866 23.5182 22.2788C23.4556 22.2235 23.0294 21.8073 22.9541 21.8673C23.5587 21.3832 24.0733 20.546 24.4911 19.3632C24.7258 18.6975 24.8747 18.0098 25.042 17.3231C25.0705 17.2058 25.0994 17.0843 25.081 16.9648C25.0626 16.8454 24.9852 16.7264 24.8679 16.697C24.7621 16.6707 24.649 16.7228 24.5727 16.8017C24.4964 16.8806 24.4501 16.9816 24.4022 17.08C24.1807 17.5357 23.9065 17.9667 23.5829 18.356C23.5803 18.3592 22.8542 17.3242 22.7942 17.22C21.4219 14.828 21.3624 11.7524 22.5074 9.25881C23.5824 6.91833 25.6772 5.17454 28.1139 4.39421C29.8588 3.8354 31.7583 3.7712 33.5363 4.21268C34.5976 4.47629 35.6163 4.91461 36.5298 5.51657C36.7371 5.65285 36.9391 5.85701 37.2064 5.82649C37.6 5.78176 37.8231 5.17718 38.0404 4.88988C38.3309 4.50576 38.6503 4.14374 38.9965 3.80909C39.6874 3.14294 40.4872 2.58728 41.3659 2.19896C43.0092 1.47335 44.8672 1.3839 46.5626 1.97954C48.0754 2.51099 49.3072 3.73016 50.1285 5.07825C51.3961 7.15827 51.8492 9.83656 51.2304 11.5924L51.2309 11.5914Z" fill="#290053"/>
  <path d="M31.6398 8.65524H31.6587L31.6613 8.65419C31.7187 8.64998 31.7745 8.62735 31.8197 8.59052C32.6258 7.94647 33.6372 7.75599 34.5259 8.0817C34.819 8.18273 35.1094 8.33848 35.3873 8.54422C35.4925 8.62578 35.6377 8.63104 35.7493 8.55685C35.8182 8.51159 35.8651 8.44161 35.8819 8.36005C35.8982 8.27849 35.8819 8.19483 35.8345 8.12432C35.3447 7.41186 34.5043 6.99723 33.5856 7.01617C32.6711 7.03511 31.8513 7.4829 31.3919 8.21482C31.3172 8.33637 31.3409 8.48791 31.4498 8.58263C31.5035 8.62946 31.5708 8.65524 31.6398 8.65524Z" fill="#290053"/>
  <path d="M23.3833 8.99573C23.8169 8.69581 24.2641 8.54163 24.7119 8.5369C25.1544 8.53269 25.6007 8.67634 26.0379 8.96258C26.1389 9.03309 26.2726 9.0373 26.3778 8.97363C26.5246 8.88523 26.572 8.69318 26.4836 8.54532C26.311 8.26118 26.0463 8.02281 25.7185 7.85549L25.6038 7.79708V7.79971C24.6561 7.37245 23.448 7.73551 22.9618 8.6174C22.8934 8.73632 22.9192 8.88418 23.0244 8.97574C23.0792 9.02415 23.1476 9.05046 23.2176 9.05046C23.2791 9.05046 23.337 9.03099 23.3833 8.99573Z" fill="#290053"/>
  <path d="M31.3358 8.48772H31.3555L31.3582 8.48662C31.4178 8.48225 31.4758 8.45873 31.5228 8.42045C32.3606 7.75108 33.4117 7.55311 34.3354 7.89162C34.64 7.99662 34.9419 8.1585 35.2306 8.37233C35.34 8.45709 35.4909 8.46256 35.6069 8.38545C35.6785 8.33842 35.7272 8.26568 35.7447 8.18092C35.7616 8.09615 35.7447 8.0092 35.6955 7.93592C35.1863 7.19545 34.313 6.76451 33.3581 6.7842C32.4077 6.80389 31.5556 7.26928 31.0782 8.02998C31.0006 8.15631 31.0252 8.31381 31.1384 8.41225C31.1941 8.46092 31.2641 8.48772 31.3358 8.48772Z" fill="#ECEEF5"/>
  <path d="M22.7549 8.8416C23.2055 8.52989 23.6703 8.36965 24.1357 8.36473C24.5957 8.36035 25.0594 8.50965 25.5139 8.80715C25.6189 8.88043 25.7578 8.88481 25.8671 8.81864C26.0197 8.72676 26.0689 8.52715 25.9771 8.37348C25.7977 8.07817 25.5226 7.83043 25.1819 7.65653L25.0627 7.59582V7.59856C24.0778 7.15449 22.8221 7.53184 22.3168 8.4484C22.2457 8.57199 22.2725 8.72567 22.3819 8.82082C22.4388 8.87113 22.5099 8.89848 22.5826 8.89848C22.6466 8.89848 22.7068 8.87824 22.7549 8.8416Z" fill="#ECEEF5"/>
  <mask id="mask0_1_3923" style="mask-type:luminance" maskUnits="userSpaceOnUse" x="58" y="5" width="79" height="17">
    <path d="M136.118 5.06978H58.1853V21.709H136.118V5.06978Z" fill="white"/>
  </mask>
  <g mask="url(#mask0_1_3923)">
    <path d="M61.2495 15.4935L61.2117 15.423C61.1729 15.3497 61.139 15.2737 61.1105 15.196L61.0837 15.1216H69.7895C69.8693 14.7416 69.9092 14.3511 69.9092 13.9497C69.9092 12.332 69.3355 10.9512 68.1898 9.8082C67.0436 8.66523 65.6611 8.09375 64.0434 8.09375C62.4258 8.09375 61.0449 8.66523 59.902 9.8082C58.759 10.9512 58.1875 12.3315 58.1875 13.9497C58.1875 15.5679 58.759 16.9498 59.902 18.0961V18.095C61.0449 19.2412 62.4252 19.8144 64.0434 19.8144C65.1837 19.8144 66.2145 19.5218 67.1371 18.9366C68.0591 18.3515 68.7717 17.5749 69.2743 16.6064H65.8175C65.2903 16.9684 64.6991 17.1489 64.0434 17.1489C62.8425 17.1489 61.9106 16.5971 61.2489 15.4941H61.2555H61.2495V15.4935ZM64.0434 10.7598C65.4041 10.7598 66.3999 11.4401 67.031 12.8007H61.0646C61.6957 11.4401 62.6888 10.7598 64.0434 10.7598Z" fill="#290053"/>
    <path d="M76.3146 8.10326C77.6692 8.10326 78.8275 8.58451 79.7895 9.54701C79.8266 9.5842 79.8627 9.62029 79.8999 9.65748C79.9371 9.62029 79.9732 9.5842 80.0104 9.54701C80.9729 8.58451 82.1312 8.10326 83.4852 8.10326C84.8393 8.10326 85.9981 8.58451 86.9601 9.54701C87.9286 10.5095 88.4126 11.6678 88.4126 13.0219V19.6965H85.7192V13.0219C85.7192 12.4094 85.4988 11.8849 85.0575 11.4496C84.6222 11.0083 84.0983 10.7879 83.4852 10.7879C82.8722 10.7879 82.3456 11.0083 81.9042 11.4496C81.4689 11.8849 81.2513 12.4088 81.2513 13.0219V19.6965H78.5481V13.0219C78.5481 12.4094 78.3277 11.8849 77.8863 11.4496C77.451 11.0083 76.9271 10.7879 76.3141 10.7879C75.701 10.7879 75.1738 11.0083 74.7331 11.4496C74.2977 11.8849 74.0801 12.4088 74.0801 13.0219V19.6965H71.3867V13.0219C71.3867 11.6672 71.868 10.509 72.8305 9.54701C73.793 8.58451 74.954 8.10326 76.3146 8.10326Z" fill="#290053"/>
    <path d="M95.7403 8.10332C97.3585 8.10332 98.7405 8.67644 99.8862 9.82269C101.032 10.9629 101.606 12.3416 101.606 13.9598C101.606 15.578 101.033 16.96 99.8862 18.1057C98.7399 19.2519 97.3585 19.825 95.7403 19.825C94.576 19.825 93.5216 19.5155 92.5777 18.8964V21.7096H89.8838V13.9593C89.8838 12.3471 90.4537 10.9684 91.5934 9.82215C92.7396 8.6759 94.121 8.10277 95.7392 8.10277H95.7398L95.7403 8.10332ZM95.7403 10.7693C94.8642 10.7693 94.1128 11.0821 93.4883 11.7067C92.8632 12.3252 92.5509 13.0766 92.5509 13.9587C92.5509 14.8408 92.8638 15.595 93.4883 16.2206C94.1134 16.8457 94.8642 17.1579 95.7403 17.1579C96.6164 17.1579 97.3766 16.8451 98.0022 16.2206C98.6273 15.5955 98.9395 14.8419 98.9395 13.9587C98.9395 13.0755 98.6267 12.3252 98.0022 11.7067C97.3771 11.0816 96.6235 10.7693 95.7403 10.7693Z" fill="#290053"/>
    <path d="M108.899 8.26902C110.529 8.26902 111.915 8.84215 113.054 9.9884C114.194 11.1346 114.764 12.5133 114.764 14.1255V19.8622H112.071V19.0621C111.127 19.6807 110.07 19.9907 108.899 19.9907C107.281 19.9907 105.899 19.4176 104.753 18.2714C103.613 17.1251 103.044 15.7432 103.044 14.1255C103.044 12.5079 103.614 11.1286 104.753 9.9884C105.9 8.84215 107.281 8.26902 108.899 8.26902ZM108.899 10.935C108.023 10.935 107.272 11.2479 106.647 11.8724C106.022 12.4909 105.71 13.2423 105.71 14.1244C105.71 15.0065 106.023 15.7607 106.647 16.3863C107.273 17.0114 108.023 17.3236 108.899 17.3236C109.775 17.3236 110.535 17.0108 111.161 16.3863C111.786 15.7612 112.098 15.0076 112.098 14.1244C112.098 13.2412 111.786 12.4909 111.161 11.8724C110.536 11.2473 109.782 10.935 108.899 10.935Z" fill="#290053"/>
    <path d="M122.158 8.39754V11.0914H119.409V13.7301C119.409 14.7167 119.676 15.5627 120.209 16.2676C120.742 16.9725 121.539 17.3247 122.599 17.3247C122.667 17.3247 122.734 17.322 122.801 17.3154V19.9814C122.734 19.9875 122.667 19.9907 122.599 19.9907C120.968 19.9907 119.581 19.4083 118.435 18.244C117.288 17.0737 116.715 15.6885 116.715 14.0889V11.092H115.171V8.39809H116.715V5.06978H119.409V8.39754H122.158Z" fill="#290053"/>
  <path d="M127.073 9.20691C128.022 8.58129 129.083 8.26957 130.253 8.26957C131.884 8.26957 133.269 8.84598 134.409 9.99824C135.549 11.1445 136.119 12.5259 136.119 14.1441V19.8622H133.425V14.2819C133.425 13.3566 133.14 12.5691 132.57 11.9194C132.006 11.2637 131.234 10.9356 130.253 10.9356C129.414 10.9356 128.693 11.2172 128.093 11.7811C127.492 12.3389 127.152 13.0405 127.073 13.8865V19.8622H124.379V5.06978H127.073V9.20691Z" fill="#290053"/>
  </g>
</svg>
